<?xml version="1.0" encoding="utf-8"?>
<!-- Generator: Adobe Illustrator 26.0.1, SVG Export Plug-In . SVG Version: 6.00 Build 0)  -->
<svg version="1.1" id="Layer_1" xmlns="http://www.w3.org/2000/svg" xmlns:xlink="http://www.w3.org/1999/xlink" x="0px" y="0px"
	 viewBox="0 0 25 25" style="enable-background:new 0 0 25 25;" xml:space="preserve">
<style type="text/css">
	.st0{fill:#050606;}
	.st1{fill:#020303;}
</style>
<g>
	<path class="st0" d="M10.23,0.28c0.39-0.05,0.78-0.1,1.16-0.15c1.11-0.1,2.22-0.02,3.33,0.13c0.33,0.07,0.66,0.15,0.98,0.22
		c0.41,0.13,0.82,0.27,1.23,0.4c0.16,0.09,0.33,0.16,0.51,0.2c0.02,0.01,0.03,0.02,0.05,0.03c0.04,0.01,0.07,0.03,0.11,0.04
		c0.52,0.28,1.03,0.56,1.55,0.84c0.13,0.09,0.26,0.17,0.39,0.26c0.24,0.18,0.48,0.36,0.72,0.54c0.96,0.8,1.81,1.71,2.53,2.73
		c0.45,0.71,0.86,1.44,1.19,2.21c0.3,0.74,0.5,1.51,0.71,2.28c0.05,0.35,0.11,0.7,0.16,1.05c0.02,0.37,0.05,0.74,0.07,1.11
		c0,0.37-0.01,0.74-0.01,1.11c-0.04,0.37-0.08,0.74-0.12,1.1c-0.14,0.75-0.33,1.49-0.55,2.22c-0.15,0.37-0.3,0.74-0.45,1.11
		c-0.09,0.14-0.17,0.28-0.21,0.44c-0.13,0.22-0.25,0.45-0.38,0.67c-0.23,0.35-0.45,0.69-0.68,1.04c-0.02,0.02-0.03,0.04-0.05,0.06
		c-0.31,0.37-0.63,0.74-0.94,1.11c-0.07,0.04-0.13,0.1-0.17,0.17c-0.34,0.31-0.68,0.62-1.01,0.93c-0.03,0.02-0.06,0.05-0.1,0.07
		c-0.7,0.54-1.44,1.01-2.22,1.43c-0.76,0.35-1.54,0.64-2.34,0.88c-0.33,0.07-0.66,0.15-0.99,0.22c-0.37,0.04-0.74,0.09-1.11,0.13
		c-0.04,0-0.07,0.01-0.11,0.01c-0.08-0.01-0.16-0.01-0.23,0.03c-0.25,0-0.51,0.01-0.76,0.01c-0.37-0.02-0.74-0.03-1.11-0.05
		c-0.37-0.04-0.74-0.09-1.1-0.13c-0.37-0.09-0.74-0.17-1.11-0.26c-0.76-0.22-1.49-0.52-2.22-0.84c-0.77-0.43-1.52-0.89-2.22-1.43
		c-0.03-0.02-0.06-0.05-0.1-0.07c-0.34-0.31-0.67-0.62-1.01-0.93c-0.04-0.07-0.09-0.13-0.16-0.17c-0.31-0.37-0.63-0.74-0.94-1.11
		c-0.5-0.7-0.93-1.45-1.33-2.22c-0.15-0.37-0.3-0.74-0.45-1.11c-0.23-0.73-0.4-1.47-0.56-2.22c-0.04-0.37-0.08-0.74-0.12-1.11
		c0-0.37,0-0.74-0.01-1.11c0.02-0.37,0.04-0.74,0.06-1.11c0.07-0.39,0.14-0.78,0.21-1.16c0.01-0.06,0.01-0.11,0.02-0.17
		c0.09-0.3,0.17-0.59,0.26-0.89c0.12-0.34,0.24-0.69,0.36-1.03c0.13-0.28,0.26-0.56,0.39-0.83C1.64,6.43,1.9,6.29,2.51,6.36
		c0.13,0.09,0.26,0.17,0.4,0.26C3.18,6.97,3.18,7.34,3,7.72C2.8,8.08,2.63,8.45,2.52,8.84c-0.3,0.71-0.48,1.45-0.55,2.22
		c-0.08,0.36-0.12,0.73-0.1,1.11c-0.01,0.41-0.05,0.83,0.04,1.24c0,0.33,0.05,0.66,0.13,0.98c0.12,0.77,0.33,1.51,0.66,2.22
		c0.14,0.39,0.32,0.76,0.55,1.11c0.1,0.24,0.24,0.45,0.4,0.65c0.09,0.17,0.19,0.32,0.32,0.45c0.22,0.34,0.49,0.65,0.78,0.94
		c0.04,0.07,0.09,0.13,0.16,0.17c0.28,0.33,0.61,0.61,0.95,0.87c0.1,0.1,0.2,0.19,0.32,0.25c0.24,0.21,0.51,0.38,0.79,0.54
		c0.35,0.23,0.71,0.43,1.1,0.58c0.02,0.05,0.07,0.04,0.11,0.05c0.32,0.17,0.65,0.3,1,0.38c0.36,0.16,0.74,0.23,1.11,0.31
		c0.29,0.06,0.57,0.14,0.87,0.13c0.04,0.03,0.08,0.04,0.13,0.03c0.04,0,0.08,0.01,0.11,0.01c0.37,0.04,0.74,0.09,1.11,0.06
		c0.37,0.03,0.74-0.02,1.11-0.06c0.41-0.04,0.83-0.08,1.22-0.21c0.34-0.05,0.68-0.14,1-0.27c0.35-0.09,0.68-0.21,1-0.39
		c0.04-0.01,0.09,0,0.11-0.05c0.39-0.15,0.75-0.36,1.1-0.58c0.28-0.15,0.54-0.32,0.78-0.54c0.13-0.06,0.24-0.15,0.33-0.26
		c0.34-0.25,0.66-0.53,0.94-0.85c0.07-0.04,0.13-0.1,0.16-0.17c0.28-0.26,0.52-0.55,0.73-0.87c0.56-0.69,1-1.46,1.32-2.29
		c0.29-0.65,0.51-1.33,0.62-2.04c0.11-0.42,0.17-0.85,0.17-1.28c0.08-0.37,0.05-0.74,0.04-1.11c-0.01-0.37-0.02-0.74-0.1-1.11
		c-0.02-0.38-0.09-0.75-0.21-1.11C22.77,9.62,22.69,9.3,22.54,9c-0.01-0.04-0.02-0.07-0.03-0.11c-0.01-0.02-0.02-0.04-0.03-0.05l0,0
		c-0.1-0.39-0.28-0.75-0.47-1.11c-0.18-0.38-0.38-0.75-0.63-1.08l0-0.02l-0.02-0.01c-0.86-1.32-1.97-2.38-3.32-3.2
		c-0.07-0.04-0.15-0.08-0.22-0.13c-0.27-0.19-0.57-0.34-0.88-0.46c-0.35-0.19-0.72-0.34-1.11-0.43c-0.64-0.24-1.3-0.39-1.98-0.45
		c-0.04-0.04-0.08-0.04-0.13-0.03c-0.04,0-0.08-0.01-0.11-0.01c-0.74-0.1-1.49-0.09-2.23-0.01C10.63,2,9.88,2.12,9.17,2.41
		C8.78,2.5,8.41,2.65,8.06,2.84C7.75,2.96,7.45,3.11,7.18,3.3C7.09,3.31,7.02,3.37,6.96,3.42c-0.35,0.19-0.67,0.44-1,0.68
		C5.5,4.43,5.15,4.87,4.68,5.18c-0.38,0.12-0.71,0.04-1-0.22C3.57,4.79,3.47,4.61,3.45,4.4C3.44,4.18,3.52,3.98,3.63,3.8
		c0.17-0.17,0.34-0.33,0.5-0.5c0.2-0.17,0.4-0.34,0.6-0.51C5,2.59,5.26,2.39,5.53,2.19c0.12-0.05,0.23-0.12,0.32-0.21
		C6.56,1.56,7.3,1.19,8.07,0.87c0.37-0.12,0.74-0.24,1.1-0.36C9.52,0.44,9.88,0.36,10.23,0.28z"/>
	<path class="st1" d="M12.5,7.17c0.39,0.02,0.66,0.23,0.84,0.56c0.05,0.15,0.05,0.31,0.05,0.46c0,1.07,0,2.14-0.01,3.2
		c0,0.16,0.02,0.23,0.2,0.22c0.38-0.02,0.75-0.01,1.13-0.02c0.37,0,0.74,0,1.11,0c0.37,0,0.74,0,1.11,0
		c0.39,0.02,0.66,0.23,0.84,0.56c0.14,0.46,0,0.83-0.38,1.11c-0.15,0.05-0.29,0.12-0.45,0.12c-0.37,0-0.74,0-1.11,0
		c-0.37,0-0.74,0-1.11,0c-0.39,0-0.79,0-1.18-0.01c-0.12,0-0.15,0.04-0.15,0.16c0.01,0.65,0.01,1.3,0.01,1.95c0,0.37,0,0.74,0,1.11
		c0.02,0.43-0.04,0.83-0.42,1.1c-0.16,0.05-0.31,0.13-0.48,0.13c-0.2,0-0.38-0.09-0.55-0.18c-0.26-0.24-0.35-0.54-0.34-0.89
		c0.01-0.79,0-1.58,0-2.37c0-0.27-0.01-0.54,0.01-0.81c0.01-0.2-0.09-0.2-0.23-0.17c-0.37,0-0.74,0-1.11,0c-0.37,0-0.74,0-1.11,0
		c-0.37,0-0.74,0-1.11,0c-0.2,0-0.38-0.09-0.55-0.18c-0.31-0.29-0.41-0.64-0.29-1.05c0.18-0.34,0.45-0.54,0.84-0.56
		c0.37,0,0.74,0,1.11,0c0.37,0,0.74,0,1.11,0c0.36,0,0.72-0.01,1.08,0.01c0.2,0.01,0.26-0.04,0.26-0.25c-0.01-1.17,0-2.34,0-3.51
		C11.78,7.45,12.05,7.19,12.5,7.17z"/>
</g>
</svg>
