<svg width="23" height="15" viewBox="0 0 23 15" fill="none" xmlns="http://www.w3.org/2000/svg">
<g clip-path="url(#clip0_610_89)">
<path d="M0 7.292C0.178 7.09 0.345 6.878 0.535 6.687C2.611 4.607 4.69 2.529 6.768 0.451003C6.849 0.370003 6.926 0.284003 7.013 0.210003C7.335 -0.0649972 7.713 -0.0689972 7.981 0.194003C8.25 0.456003 8.269 0.852003 7.988 1.158C7.63 1.548 7.244 1.914 6.869 2.288C5.397 3.756 3.924 5.222 2.452 6.69C2.416 6.726 2.384 6.765 2.297 6.862C2.524 6.862 2.675 6.862 2.827 6.862C8.906 6.862 14.985 6.863 21.064 6.859C21.435 6.859 21.775 6.899 22.028 7.206C22.028 7.464 22.028 7.722 22.028 7.98C21.747 8.198 21.429 8.244 21.077 8.244C14.841 8.237 8.606 8.239 2.364 8.239C2.336 8.406 2.482 8.456 2.562 8.534C4.265 10.195 5.972 11.851 7.678 13.51C7.811 13.64 7.95 13.769 8.057 13.919C8.267 14.215 8.24 14.518 7.99 14.777C7.754 15.021 7.462 15.055 7.169 14.886C7.035 14.809 6.921 14.693 6.811 14.582C4.671 12.445 2.533 10.306 0.396 8.166C0.255 8.027 0.131 7.871 0 7.723C0 7.579 0 7.436 0 7.292Z" fill="#131414"/>
</g>
<defs>
<clipPath id="clip0_610_89">
<rect width="22.027" height="14.991" fill="white"/>
</clipPath>
</defs>
</svg>
