<svg width="15" height="15" viewBox="0 0 15 15" fill="none" xmlns="http://www.w3.org/2000/svg">
<g clip-path="url(#clip0_9201_36387)">
<path d="M14.7001 4.38318L10.6099 0.290245C10.2243 -0.0968549 9.54817 -0.0965353 9.16334 0.289926L7.80005 1.65411C7.60663 1.84699 7.50011 2.10417 7.50011 2.378C7.50011 2.65184 7.60663 2.90902 7.79973 3.10158L7.84061 3.14246C7.0179 3.71074 5.20455 4.76593 3.06834 4.76593C2.91621 4.76593 2.78236 4.86686 2.74043 5.01346L0.0130846 14.5652C-0.0208889 14.6841 0.0124135 14.8123 0.099984 14.9C0.164895 14.965 0.251794 14.9999 0.341027 14.9999C0.372316 14.9999 0.403956 14.9956 0.434574 14.9869L9.97998 12.2578C10.1265 12.2159 10.2274 12.0819 10.2274 11.9297C10.2274 9.79209 11.2818 7.97753 11.8497 7.15427L11.8903 7.19483C12.083 7.38838 12.34 7.495 12.6137 7.495C12.8873 7.495 13.1443 7.38838 13.3368 7.19518L14.7001 5.831C14.8935 5.63812 15 5.38094 15 5.1071C15 4.83324 14.8935 4.57606 14.7001 4.38318ZM9.55015 11.6734L1.51227 13.9698L5.44805 10.034C5.65084 10.1538 5.8843 10.2272 6.13644 10.2272C6.88849 10.2272 7.50008 9.61564 7.50008 8.86356C7.50008 8.11148 6.88852 7.49992 6.13644 7.49992C5.38435 7.49992 4.7728 8.11148 4.7728 8.86356C4.7728 9.11569 4.84624 9.34916 4.96596 9.55195L1.03018 13.4878L3.32661 5.44984C5.62859 5.36694 7.5314 4.20685 8.33011 3.63985L11.3601 6.66989C10.7931 7.46863 9.63306 9.3714 9.55015 11.6734ZM5.45463 8.86359C5.45463 8.48774 5.76059 8.18179 6.13644 8.18179C6.51229 8.18179 6.81824 8.48774 6.81824 8.86359C6.81824 9.23944 6.51229 9.54539 6.13644 9.54539C5.76059 9.54539 5.45463 9.23944 5.45463 8.86359ZM14.2183 5.35463L12.8544 6.71859C12.7265 6.8471 12.5012 6.84742 12.3726 6.71827L8.28144 2.62707C8.2172 2.56315 8.18188 2.47759 8.18188 2.38638C8.18188 2.29516 8.21716 2.20961 8.28175 2.14533L9.64571 0.781375C9.70963 0.717135 9.79519 0.68182 9.8864 0.68182C9.97762 0.68182 10.0632 0.717103 10.1274 0.781695L14.2183 4.87258L14.2187 4.8729C14.2829 4.93682 14.3182 5.02238 14.3182 5.11359C14.3182 5.20484 14.2829 5.29039 14.2183 5.35463Z" fill="white"/>
</g>
<defs>
<clipPath id="clip0_9201_36387">
<rect width="15" height="15" fill="white"/>
</clipPath>
</defs>
</svg>
