<?xml version="1.0" encoding="utf-8"?>
<!-- Generator: Adobe Illustrator 26.0.1, SVG Export Plug-In . SVG Version: 6.00 Build 0)  -->
<svg version="1.1" id="Layer_1" xmlns="http://www.w3.org/2000/svg" xmlns:xlink="http://www.w3.org/1999/xlink" x="0px" y="0px"
	 viewBox="0 0 20 20" style="enable-background:new 0 0 20 20;" xml:space="preserve">
<style type="text/css">
	.st0{fill:#070706;}
</style>
<path class="st0" d="M19.73,10.48c-0.06,0.01-0.05,0.07-0.06,0.11c-0.3,0.76-0.91,1.18-1.72,1.19c-0.26,0-0.26,0-0.26,0.27
	c0,1.9,0.01,3.8-0.01,5.69c-0.01,1.05-0.95,1.97-2,1.98c-1.05,0.01-2.11,0-3.16,0c-0.39,0-0.63-0.24-0.63-0.63
	c0-1.47-0.02-2.95,0.01-4.42c0.01-0.55-0.36-1.1-1.08-1.07c-0.53,0.02-1.07,0.02-1.6,0c-0.72-0.03-1.09,0.52-1.08,1.07
	c0.02,1.45,0.01,2.91,0.01,4.36c0,0.47-0.22,0.69-0.68,0.69c-0.98,0-1.96-0.02-2.93,0.01c-1.16,0.03-2.2-0.92-2.19-2.18
	c0.02-1.85,0-3.69,0.01-5.54c0-0.2-0.05-0.25-0.25-0.25c-0.79,0.01-1.42-0.41-1.71-1.1C0.12,9.99,0.27,9.24,0.83,8.68
	c2.63-2.63,5.26-5.26,7.89-7.89c0.35-0.35,0.76-0.52,1.27-0.53c0.57-0.01,1.01,0.2,1.4,0.59c2.49,2.49,4.98,4.98,7.47,7.47
	c0.36,0.36,0.72,0.7,0.87,1.21C19.73,9.84,19.73,10.16,19.73,10.48z M16.54,14.44c0-1.07,0-2.13,0-3.2c0-0.37,0.24-0.61,0.6-0.61
	c0.28,0,0.56,0,0.84,0c0.31,0,0.54-0.2,0.62-0.49c0.09-0.33-0.09-0.54-0.3-0.75c-2.57-2.57-5.14-5.14-7.72-7.71
	c-0.4-0.4-0.73-0.4-1.12-0.01c-2.3,2.3-4.6,4.6-6.89,6.89C2.25,8.89,1.92,9.21,1.6,9.54c-0.19,0.2-0.24,0.44-0.13,0.7
	c0.11,0.26,0.32,0.39,0.6,0.39c0.25,0,0.51,0,0.76,0c0.45,0,0.67,0.22,0.67,0.68c0,2.08,0,4.15,0,6.23c0,0.66,0.39,1.05,1.05,1.05
	c0.75,0,1.5,0,2.25,0c0.16,0,0.2-0.03,0.2-0.19C7,17.16,7.01,15.91,7,14.67c-0.01-1.17,0.77-2.01,1.71-2.15
	c0.82-0.13,1.65-0.06,2.47-0.03c0.08,0,0.15,0.02,0.22,0.04c1.01,0.25,1.64,1.06,1.64,2.14c0,1.25,0,2.5,0,3.75
	c0,0.15,0.04,0.19,0.19,0.18c0.76-0.01,1.52,0,2.28,0c0.62,0,1.02-0.41,1.02-1.02C16.54,16.52,16.54,15.48,16.54,14.44z"/>
</svg>
