<?xml version="1.0" encoding="utf-8"?>
<!-- Generator: Adobe Illustrator 26.0.1, SVG Export Plug-In . SVG Version: 6.00 Build 0)  -->
<svg version="1.1" id="Layer_1" xmlns="http://www.w3.org/2000/svg" xmlns:xlink="http://www.w3.org/1999/xlink" x="0px" y="0px"
	 viewBox="0 0 25 25" style="enable-background:new 0 0 25 25;" xml:space="preserve">
<style type="text/css">
	.st0{fill:#070606;}
</style>
<path class="st0" d="M2.17,24.88c-0.04-0.07-0.12-0.07-0.19-0.1c-0.39-0.2-0.63-0.64-0.57-1.08c0.34-2.74,1.5-5.05,3.53-6.92
	c0.94-0.86,2.02-1.53,3.2-2.02c0.06-0.03,0.13-0.05,0.22-0.09c-0.21-0.16-0.4-0.29-0.59-0.44c-1.59-1.3-2.57-2.97-2.85-5.01
	C4.53,6.35,5.37,3.88,7.55,1.94c1.2-1.07,2.63-1.65,4.24-1.79c3.97-0.34,7.54,2.35,8.21,6.3c0.56,3.34-0.49,6.09-3.26,8.13
	c-0.03,0.02-0.06,0.05-0.11,0.09c0.25,0.11,0.48,0.21,0.71,0.32c3.38,1.68,5.43,4.36,6.12,8.07c0.06,0.33,0.2,0.66,0.1,1.01
	c-0.12,0.41-0.36,0.69-0.8,0.76c-0.02,0-0.03,0.03-0.05,0.05c-0.11,0-0.23,0-0.34,0c-0.35-0.15-0.66-0.36-0.76-0.76
	c-0.04-0.17-0.01-0.34-0.04-0.51c-0.27-1.79-0.97-3.39-2.21-4.72c-2.4-2.55-5.37-3.5-8.78-2.81c-3.45,0.7-5.75,2.8-6.88,6.15
	c-0.14,0.42-0.3,0.86-0.27,1.31c0.05,0.74-0.11,1.04-0.78,1.33C2.5,24.88,2.33,24.88,2.17,24.88z M18.38,8
	c0-3.28-2.62-5.93-5.88-5.95C9.25,2.03,6.59,4.69,6.59,7.98c0,3.29,2.62,5.96,5.88,5.98C15.71,13.98,18.38,11.29,18.38,8z"/>
</svg>
